# AST/ASF file generated using VICON BodyLanguage
# -----------------------------------------------
:version 1.10
:name VICON
:units
  mass 1.0
  length 0.45
  angle deg
:documentation
   .ast/.asf automatically generated from VICON data using
   VICON BodyBuilder and BodyLanguage model FoxedUp or BRILLIANT.MOD
:root
   order TX TY TZ RX RY RZ
   axis XYZ
   position 0 0 0  
   orientation 0 0 0 
:bonedata
  begin
     id 1 
     name lhipjoint
     direction 0.575328 -0.747301 0.332475 
     length 2.40933 
     axis 0 0 0  XYZ
  end
  begin
     id 2 
     name lfemur
     direction 0.34202 -0.939693 0  
     length 7.31453  
     axis 0 0 20  XYZ
    dof rx ry rz
    limits (-160.0 20.0)
           (-70.0 70.0)
           (-60.0 70.0)
  end
  begin
     id 3 
     name ltibia
     direction 0.34202 -0.939693 0   
     length 7.82185   
     axis 0 0 20   XYZ
    dof rx
    limits (-10.0 170.0)
  end
  begin
     id 4 
     name lfoot
     direction 0.0795993 -0.218697 0.972541   
     length 2.19173   
     axis -90 7.62852e-016 20   XYZ
    dof rx rz
    limits (-45.0 90.0)
           (-70.0 20.0)
  end
  begin
     id 5 
     name ltoes
     direction 1.53537e-011 -4.21894e-011 1   
     length 1.10023   
     axis -90 7.62852e-016 20   XYZ
    dof rx
    limits (-90.0 20.0)
  end
  begin
     id 6 
     name rhipjoint
     direction -0.513884 -0.783789 0.348708   
     length 2.29716  
     axis 0 0 0  XYZ 
  end
  begin
     id 7 
     name rfemur
     direction -0.34202 -0.939693 0   
     length 7.59573   
     axis 0 0 -20   XYZ
    dof rx ry rz
    limits (-160.0 20.0)
           (-70.0 70.0)
           (-70.0 60.0)
  end
  begin
     id 8 
     name rtibia
     direction -0.34202 -0.939693 0   
     length 7.66402   
     axis 0 0 -20   XYZ
    dof rx
    limits (-10.0 170.0)
 end
 begin
     id 9 
     name rfoot
     direction -0.137793 -0.378584 0.915253   
     length 2.27056  
     axis -90 -7.62852e-016 -20   XYZ
    dof rx rz
    limits (-45.0 90.0)
           (-20.0 70.0)
  end
  begin
     id 10 
     name rtoes
     direction -1.53493e-011 -4.22159e-011 1   
     length 1.11766   
     axis -90 -7.62852e-016 -20   XYZ
    dof rx
    limits (-90.0 20.0)
  end
  begin
     id 11 
     name lowerback
     direction -0.00732775 0.998356 -0.05685   
     length 2.16513   
     axis 0 0 0   XYZ
    dof rx ry rz
    limits (-20.0 45.0)
           (-30.0 30.0)
           (-30.0 30.0)
  end
  begin
     id 12 
     name upperback
     direction 0.0218081 0.999627 -0.0164647   
     length 2.16755   
     axis 0 0 0   XYZ
    dof rx ry rz
    limits (-20.0 45.0)
           (-30.0 30.0)
           (-30.0 30.0)
  end
  begin
     id 13 
     name thorax
     direction 0.02365 0.999661 0.0108914   
     length 2.16932   
     axis 0 0 0   XYZ
    dof rx ry rz
    limits (-20.0 45.0)
           (-30.0 30.0)
           (-30.0 30.0)
  end
  begin
     id 14 
     name lowerneck
     direction -0.0523929 0.978385 0.200044   
     length 1.63877   
     axis 0 0 0   XYZ
    dof rx ry rz
    limits (-20.0 45.0)
           (-30.0 30.0)
           (-30.0 30.0)
  end
  begin
     id 15 
     name upperneck
     direction 0.0448674 0.981321 -0.187074   
     length 1.69014   
     axis 0 0 0   XYZ
    dof rx ry rz
    limits (-20.0 45.0)
           (-30.0 30.0)
           (-30.0 30.0)
  end
  begin
     id 16
     name head
     direction 0.0199089 0.996118 -0.0857429  
     length 1.70094  
     axis 0 0 0   XYZ
    dof rx ry rz
    limits (-20.0 45.0)
           (-30.0 30.0)
           (-30.0 30.0)
  end
  begin
     id 17 
     name lclavicle
     direction 0.940366 0.30191 -0.156722  
     length 3.37521  
     axis 0 0 0   XYZ
    dof ry rz
    limits (-20.0 10.0)
           (0.0 20.0)
  end
  begin
     id 18 
     name lhumerus
     direction 1 -4.4897e-011 -1.7911e-027   
     length 5.25287   
     axis 180 -30 -90   XYZ
    dof rx ry rz
    limits (-60.0 90.0)
           (-90.0 90.0)
           (-90.0 90.0)
  end
  begin
     id 19
     name lradius
     direction 1 -4.48951e-011 1.04424e-027   
     length 3.51014   
     axis 180 -30 -90   XYZ
    dof rx
    limits (-10.0 170.0)
  end
  begin
     id 20
     name lwrist
     direction 1 -4.48997e-011 -9.5942e-028   
     length 1.75507   
     axis 8.48502e-016 90 90   XYZ
    dof ry
    limits (-180.0 0.0)
 end
  begin
     id 21 
     name lhand
     direction 1 -4.48831e-011 -1.90777e-027   
     length 0.706179   
     axis 1.22306e-015 90 90   XYZ
    dof rx rz
    limits (-90.0 90.0)
           (-45.0 45.0)
  end
  begin
     id 22 
     name lfingers
     direction 1 -4.49108e-011 -3.85244e-027   
     length 0.569339   
     axis 2.44611e-015 90 90   XYZ
    dof rx
    limits (0.0 90.0)
  end
  begin
     id 23
     name lthumb
     direction 0.707107 -6.34953e-011 0.707107   
     length 0.817461   
     axis -90 45 -1.62303e-014   XYZ
    dof rx rz
    limits (-45.0 45.0)
           (-45.0 45.0)
  end
  begin
     id 24 
     name rclavicle
     direction -0.905329 0.382405 -0.184787   
     length 3.30787  
     axis 0 0 0   XYZ 
    dof ry rz
    limits (-10.0 20.0)
           (-20.0 0.0)
  end
  begin
     id 25 
     name rhumerus
     direction -1 -4.48953e-011 -9.15316e-029  
     length 5.28721   
     axis 180 30 90   XYZ
    dof rx ry rz
    limits (-90.0 60.0)
           (-90.0 90.0)
           (-90.0 90.0)
  end
  begin
     id 26 
     name rradius
     direction -1 -4.48987e-011 9.37824e-028   
     length 3.50544   
     axis 180 30 90   XYZ
    dof rx
    limits (-10.0 170.0)
  end
  begin
     id 27 
     name rwrist
     direction -1 -4.48967e-011 -9.58414e-028   
     length 1.75272   
     axis 8.48502e-016 -90 -90   XYZ
    dof ry
    limits (-180.0 0.0)
  end
  begin
     id 28
     name rhand
     direction -1 -4.48904e-011 -1.91266e-027   
     length 0.884996   
     axis 1.22306e-015 -90 -90   XYZ
    dof rx rz
    limits (-90.0 90.0)
           (-45.0 45.0)
  end
  begin
     id 29
     name rfingers
     direction -1 -4.4909e-011 -3.85015e-027   
     length 0.713507   
     axis 2.44611e-015 -90 -90   XYZ
    dof rx
    limits (0.0 90.0)
  end
  begin
     id 30
     name rthumb
     direction -0.707107 -6.34853e-011 0.707107   
     length 1.02446   
     axis -90 -45 1.62303e-014   XYZ
    dof rx rz
    limits (-45.0 45.0)
           (-45.0 45.0)
  end
:hierarchy
  begin
    root lhipjoint rhipjoint lowerback
    lhipjoint lfemur
    lfemur ltibia
    ltibia lfoot
    lfoot ltoes
    rhipjoint rfemur
    rfemur rtibia
    rtibia rfoot
    rfoot rtoes
    lowerback upperback
    upperback thorax
    thorax lowerneck lclavicle rclavicle
    lowerneck upperneck
    upperneck head
    lclavicle lhumerus
    lhumerus lradius
    lradius lwrist
    lwrist lhand lthumb
    lhand lfingers
    rclavicle rhumerus
    rhumerus rradius
    rradius rwrist
    rwrist rhand rthumb
    rhand rfingers
  end

#!OML:ASF F:\twosubjects\two\Thursday\Session 1\justin.ASF
:FULLY-SPECIFIED
:DEGREES
1
root 19.3492 18.5278 3.12569 11.255 -78.9712 1.73541
lowerback 3.15656 -0.183233 -1.88217
upperback 0.886633 -0.297961 2.21894
thorax -0.838386 -0.155413 3.34907
lowerneck -18.902 -3.64673 -10.1757
upperneck 30.7944 -5.98062 10.2256
head 14.3679 -2.61081 4.83093
rclavicle 1.2921e-014 -1.27222e-014
rhumerus 31.098 34.6529 -49.7438
rradius 53.5921
rwrist 4.49905
rhand -26.1035 23.6181
rfingers 7.12502
rthumb 0.445804 -6.36122
lclavicle 1.2921e-014 -1.27222e-014
lhumerus 35.4364 -34.1937 60.2168
lradius 40.8598
lwrist -23.224
lhand -22.7251 32.5741
lfingers 7.12502
lthumb 3.70854 62.5216
rfemur -20.7694 -3.85824 24.8528
rtibia 25.7761
rfoot -16.0871 -13.0741
rtoes -10.9333
lfemur -13.3561 -0.780322 -14.8888
ltibia 9.10138
lfoot -7.58946 -5.81002
ltoes -17.5742
2
root 19.3343 18.5251 3.11135 11.331 -79.0596 1.67384
lowerback 3.24786 -0.138295 -2.0549
upperback 0.990015 -0.246288 2.33613
thorax -0.785705 -0.132593 3.56623
lowerneck -19.1279 -3.63203 -10.1139
upperneck 31.0769 -5.86429 9.8798
head 14.5126 -2.59588 4.70824
rclavicle 2.32578e-014 -8.74653e-015
rhumerus 31.1387 34.9611 -48.959
rradius 54.4047
rwrist 3.99994
rhand -26.4568 22.7042
rfingers 7.12502
rthumb 0.10452 -7.27557
lclavicle 2.32578e-014 -8.74653e-015
lhumerus 35.7465 -34.7957 59.081
lradius 41.7476
lwrist -21.9425
lhand -23.0414 34.4223
lfingers 7.12502
lthumb 3.40311 64.3749
rfemur -20.7179 -3.74519 24.8889
rtibia 25.7538
rfoot -16.2105 -13.0036
rtoes -11.0959
lfemur -13.3747 -0.676907 -14.8362
ltibia 9.22536
lfoot -7.57017 -5.76682
ltoes -17.8799
3
root 19.3205 18.5218 3.09644 11.454 -79.0632 1.6142
lowerback 3.32612 -0.155253 -2.13971
upperback 1.02216 -0.273062 2.33517
thorax -0.793985 -0.146402 3.61463
lowerneck -18.9802 -3.54183 -9.77833
upperneck 31.0718 -5.78832 9.65479
head 14.4447 -2.55715 4.56587
rclavicle 1.21259e-014 7.95139e-016
rhumerus 30.9612 35.2775 -48.6762
rradius 55.2215
rwrist 3.8077
rhand -26.4784 22.2822
rfingers 7.12502
rthumb 0.0836933 -7.69754
lclavicle 1.21259e-014 7.95139e-016
lhumerus 35.9895 -35.3863 57.8808
lradius 42.513
lwrist -20.6825
lhand -23.6912 36.1942
lfingers 7.12502
lthumb 2.77563 66.1559
rfemur -20.722 -3.60144 24.9449
rtibia 25.7173
rfoot -16.1252 -13.1384
rtoes -11.2016
lfemur -13.5245 -0.654237 -14.7766
ltibia 9.43777
lfoot -7.54472 -5.64099
ltoes -18.5762
4
root 19.3064 18.5202 3.0805 11.6615 -79.092 1.51151
lowerback 3.29768 -0.182365 -2.1575
upperback 1.037 -0.309507 2.24914
thorax -0.760361 -0.164914 3.53675
lowerneck -18.6847 -3.42915 -9.54552
upperneck 31.0233 -5.7719 9.74914
head 14.3488 -2.52058 4.564
rclavicle 9.34288e-015 9.14409e-015
rhumerus 30.9614 35.5805 -48.2581
rradius 56.1032
rwrist 3.30706
rhand -26.3971 21.9366
rfingers 7.12502
rthumb 0.162191 -8.04305
lclavicle 9.34288e-015 9.14409e-015
lhumerus 36.0246 -35.6149 57.0002
lradius 43.1208
lwrist -20.1226
lhand -23.7416 36.5605
lfingers 7.12502
lthumb 2.72693 66.5228
rfemur -20.747 -3.56071 25.0406
rtibia 25.6158
rfoot -16.0248 -13.1715
rtoes -10.961
lfemur -13.7618 -0.599537 -14.7061
ltibia 9.75855
lfoot -7.49301 -5.52337
ltoes -17.3477
5
root 19.2929 18.5227 3.06699 12.5696 -79.1181 0.720674
lowerback 3.19439 -0.113756 -1.96843
upperback 1.07465 -0.211774 2.22397
thorax -0.672393 -0.117917 3.39932
lowerneck -18.5763 -3.43305 -9.44244
upperneck 31.1518 -5.8535 9.76413
head 14.3895 -2.54852 4.54254
rclavicle 1.27222e-014 3.97569e-015
rhumerus 30.7852 35.6558 -47.8664
rradius 56.9192
rwrist 2.99533
rhand -26.4045 21.2634
rfingers 7.12502
rthumb 0.155069 -8.71628
lclavicle 1.27222e-014 3.97569e-015
lhumerus 36.2483 -36.0495 56.2375
lradius 43.7578
lwrist -19.5333
lhand -23.7498 36.8034
lfingers 7.12502
lthumb 2.71903 66.7658
rfemur -20.8101 -3.34473 25.2458
rtibia 25.5545
rfoot -15.9403 -13.287
rtoes -10.9279
lfemur -13.9451 -0.511479 -14.4825
ltibia 9.92731
lfoot -7.40219 -5.54408
ltoes -15.6734
6
root 19.2797 18.5234 3.05755 13.6739 -79.0581 -0.373229
lowerback 3.19311 -0.0663261 -1.71848
upperback 1.16941 -0.143613 2.30994
thorax -0.579976 -0.0872833 3.34417
lowerneck -18.5661 -3.47824 -9.52526
upperneck 31.3046 -5.88605 9.68801
head 14.4602 -2.58532 4.52618
rclavicle -8.94531e-015 -3.45885e-014
rhumerus 30.6817 35.6702 -47.6612
rradius 57.371
rwrist 3.28765
rhand -26.3795 20.8177
rfingers 7.12502
rthumb 0.179245 -9.16195
lclavicle -8.94531e-015 -3.45885e-014
lhumerus 36.559 -36.4136 55.5674
lradius 44.3906
lwrist -18.8537
lhand -23.795 37.3932
lfingers 7.12502
lthumb 2.67531 67.3561
rfemur -20.8016 -3.29124 25.5147
rtibia 25.5574
rfoot -15.9534 -13.3208
rtoes -10.9244
lfemur -13.9315 -0.499408 -14.1795
ltibia 9.91043
lfoot -7.42257 -5.66048
ltoes -16.5884
7
root 19.2621 18.5228 3.04449 13.4216 -78.9253 -0.152274
lowerback 3.23791 -0.156072 -1.95173
upperback 1.29534 -0.273659 2.48499
thorax -0.464273 -0.15777 3.66177
lowerneck -18.6365 -3.43377 -9.92996
upperneck 31.4921 -5.72568 9.77941
head 14.557 -2.55571 4.67568
rclavicle -1.59028e-014 -9.54166e-015
rhumerus 30.9935 35.7859 -47.2196
rradius 57.6655
rwrist 3.97376
rhand -25.9943 21.3048
rfingers 7.12502
rthumb 0.551246 -8.67427
lclavicle -1.59028e-014 -9.54166e-015
lhumerus 36.5489 -36.2141 55.2974
lradius 44.8383
lwrist -18.5927
lhand -23.6626 37.4835
lfingers 7.12502
lthumb 2.80322 67.4448
rfemur -20.7359 -3.43001 25.5409
rtibia 25.6081
rfoot -16.2289 -13.224
rtoes -10.2464
lfemur -13.8215 -0.625662 -14.1233
ltibia 9.80196
lfoot -7.46109 -5.62224
ltoes -16.783
